<?xml version="1.0" standalone="no"?><!DOCTYPE svg PUBLIC "-//W3C//DTD SVG 1.1//EN" "http://www.w3.org/Graphics/SVG/1.1/DTD/svg11.dtd"><svg t="1593530239767" class="icon" viewBox="0 0 1024 1024" version="1.1" xmlns="http://www.w3.org/2000/svg" p-id="3394" xmlns:xlink="http://www.w3.org/1999/xlink" width="200" height="200"><defs><style type="text/css"></style></defs><path d="M0 512c0 282.784 229.216 512 512 512s512-229.216 512-512S794.784 0 512 0 0 229.216 0 512m736-214.4H288a101.152 101.152 0 0 1-4.448-0.192h0.224a32.256 32.256 0 0 1-5.76-1.024l0.224 0.064a20.704 20.704 0 0 1-5.152-2.112l0.096 0.064a16.32 16.32 0 0 1-5.888-5.824l-0.032-0.064a21.792 21.792 0 0 1-2.016-4.928l-0.032-0.16a29.728 29.728 0 0 1-0.928-5.408v-0.128a79.04 79.04 0 0 1-0.192-4.192v-3.36c0-1.408 0.064-2.816 0.192-4.224 0.16-1.824 0.448-3.712 0.928-5.536a21.44 21.44 0 0 1 2.112-5.184l-0.064 0.096a16.32 16.32 0 0 1 5.856-5.856l0.064-0.032a19.744 19.744 0 0 1 4.896-2.048l0.16-0.032a33.92 33.92 0 0 1 5.536-0.928 79.04 79.04 0 0 1 4.192-0.192H736c1.408 0 2.816 0.064 4.224 0.192a30.88 30.88 0 0 1 5.536 0.96c1.92 0.512 3.616 1.216 5.152 2.112l-0.096-0.064a16.32 16.32 0 0 1 5.888 5.824l0.032 0.064c0.992 1.76 1.632 3.52 2.048 5.088 0.48 1.824 0.768 3.712 0.928 5.536 0.128 1.408 0.192 2.816 0.192 4.224v3.328c0 1.408-0.064 2.816-0.192 4.224a29.632 29.632 0 0 1-0.992 5.76l0.064-0.224a21.44 21.44 0 0 1-2.112 5.184l0.064-0.096a16.32 16.32 0 0 1-5.856 5.856l-0.064 0.032a19.744 19.744 0 0 1-4.896 2.048l-0.16 0.032a29.728 29.728 0 0 1-5.408 0.928h-0.128a79.04 79.04 0 0 1-4.192 0.192H736z m-128 294.4V672c-0.096 5.248-0.32 10.56-0.736 15.84-0.64 7.68-1.888 14.752-3.712 21.568l0.192-0.832a78.4 78.4 0 0 1-7.904 19.456l0.192-0.384a60.96 60.96 0 0 1-9.568 12.544 60.576 60.576 0 0 1-12.256 9.408l-0.288 0.16c-5.472 3.2-11.84 5.824-18.528 7.616l-0.544 0.128c-6.912 1.824-13.92 2.88-20.736 3.456-5.28 0.48-10.56 0.672-15.872 0.768h-12.48a216.96 216.96 0 0 1-16.704-0.832l0.832 0.064a118.944 118.944 0 0 1-21.568-3.648l0.832 0.192a78.464 78.464 0 0 1-19.456-7.936l0.384 0.192a59.456 59.456 0 0 1-21.952-21.824l-0.16-0.288c-3.2-5.472-5.824-11.84-7.616-18.528l-0.128-0.544a112.96 112.96 0 0 1-3.456-20.288l-0.032-0.448a208.448 208.448 0 0 1-0.736-15.712V592h-89.344C305.28 592 288 577.632 288 559.936c0-7.776 3.392-15.296 9.568-21.12l185.344-175.872c14.08-13.312 38.464-14.688 54.528-3.008 1.28 0.96 2.528 1.92 3.648 3.008l185.344 175.84c14.08 13.344 12.448 33.6-3.616 45.28a43.2 43.2 0 0 1-25.056 7.936H608z" p-id="3395"></path></svg>